# xmcd
#
# Track frame offsets:
#	150
#	15602
#	31285
#	45979
#	61430
#	76764
#	88462
#	102685
#	118703
#	133703
#	149180
#	164200
#	178169
#	193341
#	206830
#	220265
#	232543
#	247258
#	262462
#	274481
#	289337
#	302437
#	314011
#	326502
#
# Disc length: 4536
#
# Revision: 1
# Processed by: cddbd v1.5.1PL0 Copyright (c) Steve Scherf et al.
# Submitted via: CDex 1.50beta9
# Normalized: r0:TRMNUM
#
DISCID=8a11b618
DTITLE=Django Reinhardt and Michel Warlop - Two of a Kind
DYEAR=2003
DGENRE=Jazz
TTITLE0=Cloud Castles
TTITLE1=Magic Strings
TTITLE2=Sweet Serenade
TTITLE3=Crazy Strings
TTITLE4=Novel Pets
TTITLE5=Budding Dancers
TTITLE6=Presentation Stomp
TTITLE7=Ici, l'on pêche
TTITLE8=La Chanson du large
TTITLE9=Blue interlude
TTITLE10=Deux cigarettes dans l'ombre
TTITLE11=Avalon
TTITLE12=Oh, Lady Be Good
TTITLE13=You Took Advantage of Me
TTITLE14=Swinging with Django
TTITLE15=Paramount Stomp
TTITLE16=Serenade for a Wealthy Widow
TTITLE17=Taj Mahal
TTITLE18=Organ Grinder's Swing
TTITLE19=Tea for Two
TTITLE20=Christmas Swing
TTITLE21=Sweet Sue
TTITLE22=It Had to Be You
TTITLE23=Mélodie au crépuscule
EXTD=YEAR: 2003
EXTT0=
EXTT1=
EXTT2=
EXTT3=
EXTT4=
EXTT5=
EXTT6=
EXTT7=
EXTT8=
EXTT9=
EXTT10=
EXTT11=
EXTT12=
EXTT13=
EXTT14=
EXTT15=
EXTT16=
EXTT17=
EXTT18=
EXTT19=
EXTT20=
EXTT21=
EXTT22=
EXTT23=
PLAYORDER=
